<svg width="19" height="26" viewBox="0 0 19 26" fill="none" xmlns="http://www.w3.org/2000/svg">
<path d="M10.724 23.4017L9.99121 22.9828L13.0115 7.64453L18.0689 13.453L10.724 23.4017Z" fill="white" fill-opacity="0.15"/>
<path d="M18.371 0.883545C18.3676 9.2048 18.3615 13.3959 18.3527 13.4568C18.342 13.5451 18.3088 13.6293 18.2562 13.7011L9.57038 25.51L0.877188 13.7011C0.82462 13.6293 0.791396 13.5451 0.780705 13.4568C0.774039 13.383 0.771189 13.3386 0.772156 13.3237V0.883545L6.26799 7.0975L12.8996 7.08651L18.371 0.883545ZM10.6024 23.2797L17.8251 13.4531L13.012 7.8889L10.236 22.8608L10.6024 23.2797ZM8.5396 23.2797L8.90355 22.8657L6.12754 7.89257L1.31441 13.4568L8.5396 23.2797Z" fill="white"/>
<path d="M14.9638 13.6917L12.5261 16.4945L12.1353 14.7749L14.9638 13.6917Z" fill="white"/>
</svg>
