<svg width="49" height="43" viewBox="0 0 49 43" fill="none" xmlns="http://www.w3.org/2000/svg">
<rect x="12.7314" width="2.31496" height="42.0551" rx="1.15748" fill="white"/>
<rect x="8.48779" y="6.94434" width="2.31496" height="28.1654" rx="1.15748" fill="white"/>
<rect x="4.24316" y="14.2749" width="2.31496" height="13.5039" rx="1.15748" fill="white" fill-opacity="0.34"/>
<rect x="-0.000488281" y="14.2749" width="2.31496" height="13.5039" rx="1.15748" fill="white" fill-opacity="0.34"/>
<rect x="16.9761" y="4.24365" width="2.31496" height="33.5669" rx="1.15748" fill="white"/>
<rect x="21.2197" y="10.418" width="2.31496" height="21.2205" rx="1.15748" fill="white"/>
<rect x="25.4644" y="6.94434" width="2.31496" height="28.1654" rx="1.15748" fill="white"/>
<rect x="29.708" y="14.2749" width="2.31496" height="13.5039" rx="1.15748" fill="white"/>
<rect x="33.9526" y="6.94434" width="2.31496" height="28.1654" rx="1.15748" fill="white"/>
<rect x="38.1963" y="16.5903" width="2.31496" height="8.87402" rx="1.15748" fill="white"/>
<rect x="42.4399" y="10.418" width="2.31496" height="21.2205" rx="1.15748" fill="white" fill-opacity="0.34"/>
<rect x="46.6846" y="14.2749" width="2.31496" height="13.5039" rx="1.15748" fill="white" fill-opacity="0.34"/>
</svg>
